<svg xmlns="http://www.w3.org/2000/svg" viewBox="0 0 820 240" width="820" height="240">
  <defs>
    <clipPath id="tcL"><rect x="20" y="20" width="200" height="200" rx="42"/></clipPath>
    <radialGradient id="bgL" cx="50%" cy="42%" r="70%">
      <stop offset="0%" stop-color="#1a1240"/>
      <stop offset="100%" stop-color="#070514"/>
    </radialGradient>
    <linearGradient id="arcL" x1="0%" y1="0%" x2="100%" y2="0%">
      <stop offset="0%" stop-color="#22d3ee"/>
      <stop offset="50%" stop-color="#6366f1"/>
      <stop offset="100%" stop-color="#d946ef"/>
    </linearGradient>
    <linearGradient id="textGradL" x1="0%" y1="0%" x2="100%" y2="0%">
      <stop offset="0%" stop-color="#22d3ee"/>
      <stop offset="100%" stop-color="#d946ef"/>
    </linearGradient>
    <pattern id="bbL" x="0" y="0" width="16" height="16" patternUnits="userSpaceOnUse">
      <circle cx="8" cy="8" r="0.7" fill="#ffffff" opacity="0.07"/>
    </pattern>
    <marker id="aSL" viewBox="0 0 10 10" refX="8" refY="5" markerUnits="strokeWidth" markerWidth="4.5" markerHeight="4.5" orient="auto-start-reverse">
      <path d="M 0 0 L 10 5 L 0 10 z" fill="#22d3ee"/>
    </marker>
    <marker id="aEL" viewBox="0 0 10 10" refX="8" refY="5" markerUnits="strokeWidth" markerWidth="4.5" markerHeight="4.5" orient="auto">
      <path d="M 0 0 L 10 5 L 0 10 z" fill="#d946ef"/>
    </marker>
    <filter id="glowL" x="-50%" y="-50%" width="200%" height="200%">
      <feGaussianBlur stdDeviation="1.5" result="b"/>
      <feMerge>
        <feMergeNode in="b"/>
        <feMergeNode in="SourceGraphic"/>
      </feMerge>
    </filter>
  </defs>
  <g clip-path="url(#tcL)">
    <rect x="20" y="20" width="200" height="200" fill="url(#bgL)"/>
    <rect x="20" y="20" width="200" height="200" fill="url(#bbL)"/>
  </g>
  <line x1="95.4" y1="122.1" x2="114.2" y2="155.8" stroke="#cbd5e1" stroke-width="1.5" stroke-dasharray="3 3" opacity="0.4"/>
  <line x1="144.6" y1="122.1" x2="125.8" y2="155.8" stroke="#cbd5e1" stroke-width="1.5" stroke-dasharray="3 3" opacity="0.4"/>
  <circle cx="84.6" cy="103.3" r="21.7" fill="none" stroke="#f8fafc" stroke-width="2.5"/>
  <text x="84.6" y="111.3" font-family="Helvetica Neue, Helvetica, Arial, sans-serif" font-size="24" font-weight="700" fill="#f8fafc" text-anchor="middle">A</text>
  <circle cx="155.4" cy="103.3" r="21.7" fill="none" stroke="#f8fafc" stroke-width="2.5"/>
  <text x="155.4" y="111.3" font-family="Helvetica Neue, Helvetica, Arial, sans-serif" font-size="24" font-weight="700" fill="#f8fafc" text-anchor="middle">A</text>
  <path d="M 95.4 84.6 Q 120 53 144.6 84.6" stroke="url(#arcL)" stroke-width="3" fill="none" stroke-linecap="round" filter="url(#glowL)" marker-start="url(#aSL)" marker-end="url(#aEL)"/>
  <circle cx="120" cy="161.7" r="9" fill="#a3e635" filter="url(#glowL)"/>
  <path d="M 115.5 161.7 L 119 165 L 124.5 158.5" stroke="#070514" stroke-width="1.7" fill="none" stroke-linecap="round" stroke-linejoin="round"/>
  <text x="252" y="118" font-family="Helvetica Neue, Helvetica, Arial, sans-serif" font-size="58" font-weight="600" letter-spacing="2"><tspan fill="#0f172a">A</tspan><tspan fill="url(#textGradL)">2</tspan><tspan fill="#0f172a">A TESTBED</tspan></text>
  <line x1="254" y1="146" x2="752" y2="146" stroke="#94a3b8" stroke-width="0.5" opacity="0.6"/>
  <text x="252" y="176" font-family="Helvetica Neue, Helvetica, Arial, sans-serif" font-size="13" font-weight="500" letter-spacing="4" fill="#64748b">PROTOCOL VALIDATION &#183; OBSERVED EXCHANGE</text>
</svg>
